<?xml version="1.0" standalone="no"?>
<!DOCTYPE svg PUBLIC "-//W3C//DTD SVG 20010904//EN"
 "http://www.w3.org/TR/2001/REC-SVG-20010904/DTD/svg10.dtd">
<svg version="1.0" xmlns="http://www.w3.org/2000/svg"
 width="1024.000000pt" height="1024.000000pt" viewBox="0 0 1024.000000 1024.000000"
 preserveAspectRatio="xMidYMid meet">
<metadata>
Created by potrace 1.14, written by Peter Selinger 2001-2017
</metadata>
<g transform="translate(0.000000,1024.000000) scale(0.100000,-0.100000)"
fill="#000000" stroke="none">
<path d="M894 10230 c-94 -21 -182 -92 -223 -180 -27 -59 -33 -153 -17 -255 4
-27 9 -63 11 -80 2 -16 7 -46 10 -65 4 -19 9 -44 10 -55 2 -11 9 -42 14 -70
11 -49 19 -90 26 -130 6 -36 61 -248 94 -365 12 -41 23 -82 26 -90 2 -8 10
-34 18 -57 9 -22 13 -44 10 -47 -4 -3 -1 -6 6 -6 7 0 10 -4 7 -8 -3 -5 2 -21
10 -36 7 -16 14 -37 14 -47 0 -10 5 -21 10 -24 6 -3 10 -15 10 -26 0 -10 4
-27 9 -37 5 -9 19 -44 31 -77 12 -33 26 -69 31 -80 4 -11 26 -63 47 -115 65
-156 118 -272 191 -417 103 -206 125 -247 136 -255 7 -5 7 -8 0 -8 -6 0 -5 -3
1 -8 6 -4 21 -27 34 -52 12 -25 29 -53 38 -62 8 -10 11 -18 7 -18 -4 0 0 -9 9
-19 20 -22 54 -78 62 -103 4 -10 10 -18 15 -18 5 0 9 -5 9 -10 0 -6 4 -16 10
-23 5 -7 52 -76 104 -154 52 -79 135 -197 185 -264 50 -66 91 -125 91 -130 0
-5 4 -9 8 -9 4 0 26 -23 47 -52 22 -28 44 -56 50 -62 5 -6 30 -36 55 -66 25
-30 54 -64 65 -76 11 -11 33 -36 48 -55 87 -106 446 -472 577 -589 35 -30 75
-66 90 -80 15 -14 51 -45 80 -70 29 -25 59 -51 67 -58 7 -7 13 -11 13 -8 0 2
18 -13 40 -35 21 -21 43 -39 47 -39 5 0 16 -8 25 -17 8 -10 30 -29 49 -43 18
-14 49 -38 70 -55 20 -16 99 -75 174 -130 76 -55 143 -106 150 -112 8 -7 16
-13 19 -13 8 0 101 -64 104 -72 2 -5 10 -8 18 -8 8 0 14 -4 14 -8 0 -5 12 -15
28 -23 29 -15 52 -34 52 -43 0 -3 -26 -23 -57 -43 -32 -21 -59 -41 -61 -45 -2
-5 -8 -8 -13 -8 -11 0 -122 -81 -127 -92 -2 -5 -8 -8 -13 -8 -6 0 -38 -21 -73
-47 -35 -27 -77 -57 -92 -68 -35 -25 -315 -245 -330 -259 -6 -6 -33 -29 -59
-51 -94 -79 -202 -176 -288 -257 -33 -32 -61 -58 -62 -58 -9 0 -287 -288 -392
-406 -93 -104 -103 -116 -103 -127 0 -6 -3 -7 -6 -4 -4 4 -23 -15 -42 -41 -20
-26 -39 -49 -42 -52 -13 -11 -131 -160 -201 -255 -41 -55 -77 -102 -82 -103
-4 -2 -7 -8 -7 -14 0 -6 -16 -31 -36 -54 -19 -24 -33 -44 -30 -44 3 0 -3 -10
-14 -23 -35 -40 -250 -382 -250 -397 0 -5 -6 -15 -13 -22 -13 -13 -67 -107
-116 -203 -14 -27 -29 -53 -34 -56 -5 -3 -9 -9 -8 -12 0 -4 -40 -90 -89 -192
-50 -102 -90 -192 -90 -200 0 -8 -5 -15 -12 -15 -6 0 -9 -3 -6 -6 5 -5 -6 -34
-52 -139 -33 -73 -143 -375 -155 -425 -2 -8 -13 -44 -25 -80 -12 -36 -23 -72
-25 -80 -1 -8 -5 -22 -8 -30 -6 -15 -57 -203 -62 -230 -2 -8 -4 -17 -5 -20 -1
-3 -3 -9 -5 -15 -1 -5 -3 -12 -4 -15 -2 -3 -4 -14 -5 -25 -2 -11 -15 -76 -29
-145 -15 -69 -29 -147 -33 -175 -3 -27 -8 -53 -10 -56 -16 -28 -24 -262 -10
-294 5 -11 10 -22 11 -25 26 -76 102 -148 193 -182 37 -14 95 -16 435 -15
l392 2 55 26 c30 14 71 41 91 60 41 38 94 132 84 149 -3 5 -2 10 3 10 5 0 8
10 8 22 -1 13 0 28 3 33 3 6 6 15 7 22 16 103 20 125 42 228 l17 80 80 2 c44
1 94 2 110 3 17 0 71 1 120 1 50 0 97 -1 105 0 15 0 241 0 270 0 41 -1 197 -1
210 0 8 0 49 0 90 0 105 -1 102 -1 235 -1 66 1 127 1 135 0 8 0 44 0 80 1 36
0 72 0 80 0 8 -1 44 -1 80 0 36 0 72 0 80 0 15 -1 136 0 155 0 6 0 46 0 90 0
44 0 87 0 95 0 8 0 62 -1 120 -1 58 -1 110 -1 115 0 6 2 15 1 20 0 6 -1 45 -1
88 -1 42 1 83 2 90 2 6 0 53 -1 102 -1 50 -1 95 0 100 1 6 1 15 0 20 -1 13 -2
247 -2 260 0 6 1 15 2 20 0 6 -1 78 -1 160 0 83 0 157 1 165 0 8 0 44 0 80 1
36 0 72 0 80 0 8 -1 44 -1 80 0 36 0 72 0 80 0 8 -1 44 -1 80 0 90 0 327 0
370 0 18 -1 189 -1 210 0 15 0 241 0 270 0 41 -1 197 -1 210 0 8 0 49 0 90 0
105 -1 102 -1 235 -1 66 1 127 1 135 0 8 0 44 0 80 1 36 0 72 0 80 0 8 -1 44
-1 80 0 36 0 72 0 80 0 15 -1 136 0 155 0 6 0 46 0 90 0 44 0 87 0 95 0 8 0
62 -1 120 -1 58 -1 110 -1 115 0 6 2 15 1 20 0 6 -1 39 -2 74 -1 36 1 62 -2
58 -5 -4 -4 -3 -12 2 -18 5 -6 11 -27 14 -46 3 -19 10 -57 17 -85 14 -61 16
-67 25 -130 12 -81 14 -89 19 -111 17 -76 103 -178 184 -217 46 -22 53 -22
452 -22 l405 0 55 26 c126 61 193 174 185 313 -2 35 -7 76 -10 92 -3 16 -7 47
-10 69 -3 22 -10 63 -15 90 -5 28 -12 66 -15 85 -3 19 -8 42 -10 50 -2 8 -6
26 -9 40 -2 14 -12 58 -21 99 -9 40 -19 80 -20 90 -2 9 -4 16 -5 16 -1 0 -3 7
-5 15 -9 45 -55 212 -60 220 -3 6 -8 20 -10 32 -9 45 -69 227 -122 368 -30 80
-56 150 -58 155 -1 6 -10 28 -20 50 -18 41 -37 86 -40 95 -4 13 -39 91 -67
150 -62 133 -78 170 -77 176 0 4 -3 10 -9 13 -5 3 -33 53 -62 111 -29 58 -74
141 -99 185 -26 44 -51 87 -55 95 -9 20 -23 43 -73 122 -24 37 -43 72 -43 78
0 5 -4 10 -10 10 -5 0 -10 4 -10 10 0 5 -16 32 -35 59 -19 26 -35 53 -35 59 0
6 -4 12 -8 14 -5 2 -28 32 -52 68 -24 36 -47 67 -52 68 -4 2 -8 8 -8 13 0 15
-245 338 -343 451 -17 21 -41 48 -52 61 -53 62 -143 164 -172 194 -18 18 -31
33 -29 33 3 0 -80 84 -184 188 -164 163 -219 216 -359 342 -29 27 -76 67 -103
88 -14 11 -34 1 -145 -75 -70 -49 -146 -99 -168 -113 -22 -13 -42 -27 -45 -30
-3 -4 -12 -10 -20 -13 -8 -4 -42 -25 -75 -47 -33 -22 -71 -45 -85 -51 -13 -5
-27 -14 -30 -18 -11 -16 -336 -201 -573 -326 -34 -18 -48 -35 -29 -35 4 0 19
-10 34 -23 14 -12 37 -31 50 -41 38 -31 141 -119 174 -149 18 -15 40 -34 50
-42 23 -18 46 -17 -291 -15 -143 0 -266 1 -272 1 -18 0 -220 0 -240 0 -10 0
-45 0 -78 0 -33 0 -64 0 -70 0 -31 -2 -552 -2 -560 0 -5 1 -14 0 -20 -1 -5 -1
-57 -2 -115 -1 -58 1 -112 2 -120 2 -8 0 -42 0 -75 0 -33 0 -64 0 -70 0 -84
-5 -598 -2 -603 3 -3 4 9 19 28 34 19 15 43 35 52 44 10 10 20 18 23 18 5 0
13 7 69 57 14 13 30 23 35 23 5 0 11 4 13 8 3 9 183 146 233 178 17 10 39 27
49 36 11 10 23 18 27 18 4 0 14 6 21 14 8 7 61 44 118 81 58 37 124 81 147 96
23 16 46 29 52 29 6 0 11 4 11 8 0 4 19 18 43 30 23 12 80 45 125 72 46 28 88
50 93 50 5 0 9 5 9 10 0 6 6 10 14 10 8 0 22 7 30 16 9 8 16 12 16 8 0 -3 6
-1 14 5 16 14 61 38 291 156 246 127 382 198 430 225 22 13 69 39 105 58 36
19 72 41 81 48 8 8 19 14 23 14 4 0 27 13 51 30 24 16 46 30 49 30 3 0 30 16
60 35 30 19 58 35 61 35 3 0 11 5 18 11 7 5 55 37 107 70 52 34 111 72 130 86
46 32 197 135 217 148 9 6 23 16 32 23 9 8 75 58 148 112 73 55 140 106 150
114 56 45 336 278 351 293 11 10 74 70 142 133 113 107 283 276 362 361 105
114 148 163 264 298 17 20 57 70 90 111 32 41 61 77 64 80 3 3 37 48 75 100
39 52 73 97 77 98 5 2 8 8 8 13 0 7 91 141 118 175 5 5 15 21 22 35 7 13 16
26 20 29 4 3 20 27 36 53 16 27 37 61 46 75 10 15 21 34 25 42 5 8 34 58 65
112 32 53 58 101 58 106 0 6 4 12 9 14 13 4 271 517 286 568 2 5 12 30 43 102
11 25 18 49 15 52 -4 3 -1 6 5 6 7 0 11 3 10 8 -1 7 5 26 27 77 11 25 25 66
30 85 1 3 7 18 13 33 7 16 12 34 12 41 0 7 3 16 7 19 9 10 42 107 36 107 -3 0
0 7 7 15 7 8 9 15 5 15 -4 0 -1 7 6 17 8 9 13 19 13 22 -1 3 0 11 2 16 23 79
45 156 50 178 3 15 10 30 15 33 5 3 7 9 4 14 -3 5 1 30 9 55 9 24 18 59 21 77
3 18 12 55 20 81 8 27 14 52 14 55 -1 4 0 9 1 12 2 6 7 27 14 65 7 34 13 69
21 105 6 31 16 89 20 115 2 11 6 38 10 60 3 22 8 54 12 70 19 95 7 231 -23
266 -8 8 -14 20 -14 25 0 21 -88 98 -140 123 l-55 26 -385 3 c-332 2 -392 0
-434 -14 -119 -38 -203 -136 -222 -259 -3 -16 -7 -41 -10 -55 -3 -14 -7 -39
-9 -56 -3 -16 -12 -64 -20 -105 -8 -41 -17 -87 -19 -102 -2 -16 -8 -32 -12
-37 -11 -10 -81 -17 -89 -9 -3 4 -22 3 -43 -1 -20 -3 -48 -3 -62 0 -14 4 -34
4 -45 0 -11 -4 -32 -4 -46 0 -15 4 -32 4 -39 0 -7 -4 -24 -4 -39 0 -14 4 -35
4 -46 0 -11 -4 -24 -5 -28 -3 -12 7 -185 5 -197 -2 -5 -3 -10 -2 -10 3 0 5
-17 6 -40 2 -22 -4 -40 -4 -40 0 0 4 -18 4 -40 0 -22 -4 -40 -4 -40 0 0 4 -18
4 -40 0 -22 -4 -40 -4 -40 0 0 4 -18 4 -40 0 -22 -4 -40 -4 -40 0 0 4 -18 4
-40 0 -22 -4 -40 -4 -40 0 0 4 -18 4 -40 0 -22 -4 -40 -4 -40 1 0 5 -6 6 -13
3 -19 -7 -157 -10 -157 -3 0 3 -19 3 -42 -1 -24 -3 -58 -3 -76 1 -18 4 -34 3
-37 -1 -2 -4 -23 -4 -45 0 -22 4 -42 4 -45 1 -2 -4 -31 -4 -65 -1 -34 3 -63 3
-65 -1 -3 -3 -23 -3 -45 1 -22 4 -43 4 -45 0 -3 -4 -20 -4 -39 0 -19 4 -39 4
-46 0 -7 -4 -27 -4 -46 0 -19 4 -36 4 -39 0 -2 -4 -23 -4 -45 0 -22 4 -42 4
-45 1 -2 -4 -31 -4 -65 -1 -34 3 -63 3 -65 -1 -3 -3 -23 -3 -45 1 -22 4 -43 4
-45 0 -3 -4 -19 -5 -37 -1 -18 4 -52 4 -75 1 -24 -4 -43 -4 -43 -1 0 7 -138 4
-157 -3 -7 -3 -13 -2 -13 3 0 5 -18 5 -40 1 -22 -4 -40 -4 -40 0 0 4 -18 4
-40 0 -22 -4 -40 -4 -40 0 0 4 -18 4 -40 0 -22 -4 -40 -4 -40 0 0 4 -18 4 -40
0 -22 -4 -40 -4 -40 0 0 4 -18 4 -40 0 -22 -4 -40 -4 -40 0 0 4 -18 4 -40 0
-22 -4 -40 -4 -40 0 0 4 -17 4 -37 1 -21 -4 -47 -6 -58 -5 -35 3 -89 5 -148 4
-32 0 -62 2 -67 5 -6 3 -10 2 -10 -3 0 -5 -19 -6 -42 -3 -24 4 -59 4 -78 1
-19 -3 -49 -3 -66 1 -18 3 -37 3 -44 -1 -7 -4 -26 -4 -44 0 -17 4 -40 4 -51 0
-11 -4 -29 -4 -40 0 -11 4 -29 4 -40 0 -11 -4 -31 -4 -44 0 -14 3 -44 3 -68 0
-24 -4 -43 -4 -43 0 0 4 -19 4 -43 0 -24 -3 -54 -3 -68 0 -13 4 -33 4 -44 0
-11 -4 -32 -4 -46 0 -15 4 -32 4 -39 0 -7 -4 -24 -4 -39 0 -14 4 -35 4 -46 0
-11 -4 -24 -5 -28 -3 -12 7 -185 5 -197 -2 -5 -3 -10 -2 -10 3 0 5 -17 6 -40
2 -22 -4 -40 -4 -40 0 0 4 -18 4 -40 0 -22 -4 -40 -4 -40 0 0 4 -18 4 -40 0
-22 -4 -40 -4 -40 0 0 4 -18 4 -40 0 -22 -4 -40 -4 -40 0 0 4 -18 4 -40 0 -22
-4 -40 -4 -40 0 0 4 -18 4 -40 0 -22 -4 -40 -4 -40 1 0 5 -6 6 -13 3 -19 -7
-157 -10 -157 -3 0 3 -19 3 -42 -1 -24 -3 -58 -3 -76 1 -18 4 -34 3 -37 -1 -2
-4 -23 -4 -45 0 -22 4 -42 4 -45 1 -2 -4 -31 -4 -65 -1 -34 3 -63 3 -65 -1 -3
-3 -23 -3 -45 1 -22 4 -43 4 -45 0 -3 -4 -20 -4 -39 0 -19 4 -39 4 -46 0 -7
-4 -27 -4 -46 0 -19 4 -36 4 -39 0 -2 -4 -23 -4 -45 0 -22 4 -42 4 -45 1 -2
-4 -31 -4 -65 -1 -34 3 -63 3 -65 -1 -3 -3 -23 -3 -45 1 -22 4 -43 4 -45 0 -3
-4 -20 -4 -39 0 -19 4 -39 4 -46 0 -7 -4 -27 -4 -46 0 -18 4 -36 5 -40 1 -4
-3 -4 0 0 7 4 6 2 12 -4 12 -6 0 -9 3 -7 8 3 4 -1 36 -9 72 -7 36 -22 117 -33
180 -11 63 -25 131 -32 150 -26 75 -82 137 -159 177 l-55 28 -385 1 c-212 0
-399 -2 -416 -6z m5126 -1904 c685 -3 1247 -5 1250 -6 3 -2 10 -1 15 0 27 6
113 5 133 -2 12 -4 22 -4 22 0 0 10 65 6 82 -4 6 -4 9 -3 6 2 -4 5 7 9 23 9
16 0 29 -4 29 -8 0 -5 5 -5 11 -2 14 9 124 9 138 0 9 -5 8 -12 -5 -26 -9 -10
-13 -19 -8 -19 5 0 1 -5 -8 -11 -10 -5 -18 -15 -18 -21 0 -13 -111 -192 -122
-196 -4 -2 -8 -8 -8 -13 0 -13 -173 -255 -231 -323 -10 -11 -2479 -15 -2485
-4 -3 4 -11 5 -19 1 -22 -8 -216 -9 -221 -1 -3 4 -11 5 -19 1 -22 -8 -216 -9
-221 -1 -3 4 -11 5 -19 1 -22 -8 -216 -9 -221 -1 -3 4 -11 5 -19 1 -22 -8
-216 -9 -221 -1 -3 4 -11 5 -19 1 -22 -8 -216 -9 -221 -1 -3 4 -11 5 -19 1
-22 -8 -216 -9 -221 -1 -3 4 -11 5 -19 1 -23 -8 -216 -9 -222 0 -2 4 -9 5 -14
1 -9 -5 -162 -8 -236 -5 -13 1 -23 7 -23 15 0 8 -3 16 -7 18 -13 5 -73 86 -73
97 0 5 -4 11 -9 13 -12 4 -177 250 -185 276 -4 12 -11 22 -16 22 -4 0 -20 24
-35 53 -15 28 -32 59 -39 67 -17 23 -36 59 -36 68 0 5 492 8 1143 6 628 -3
1702 -6 2387 -8z m-2070 -1606 c7 4 26 4 41 0 17 -5 31 -5 35 1 3 5 10 6 16 3
8 -5 84 -6 178 -3 8 0 24 0 35 -1 27 -1 87 -1 103 -1 17 1 38 1 65 1 12 0 33
1 47 3 14 2 37 0 51 -4 15 -4 32 -3 39 1 7 5 23 5 34 0 11 -4 33 -4 48 1 16 4
28 4 28 0 0 -5 15 -5 33 -2 17 4 47 4 65 0 17 -4 34 -3 37 2 3 4 16 4 28 0 12
-5 32 -5 44 0 13 5 25 4 28 -1 3 -5 18 -5 35 0 17 5 30 5 30 0 0 -4 16 -4 34
0 19 4 37 6 39 3 4 -3 80 -5 137 -2 8 0 24 0 35 -1 27 -1 87 -1 103 -1 17 1
38 1 65 1 12 0 33 1 47 3 14 2 36 0 50 -4 14 -3 35 -3 46 1 11 5 27 4 34 0 7
-5 24 -4 36 0 13 5 26 5 28 1 3 -5 20 -5 38 -2 18 4 47 5 63 1 17 -3 44 -3 60
0 17 3 45 3 63 -1 17 -4 32 -3 32 1 0 5 13 5 30 0 18 -5 32 -5 36 1 3 5 10 6
16 3 8 -5 84 -6 178 -3 8 0 24 0 35 -1 11 0 32 -1 48 -1 15 1 33 0 40 0 6 0
37 1 67 1 30 1 59 1 63 1 5 -1 -6 -13 -25 -28 -33 -28 -81 -70 -102 -88 -6 -5
-27 -22 -46 -36 -19 -15 -45 -35 -57 -45 -62 -53 -307 -228 -487 -347 -10 -6
-24 -16 -30 -22 -6 -5 -18 -11 -26 -13 -8 -2 -16 -8 -18 -13 -2 -5 -10 -9 -18
-9 -8 0 -14 -4 -14 -10 0 -5 -7 -10 -15 -10 -8 0 -15 -4 -15 -8 0 -4 -19 -18
-42 -30 -24 -12 -56 -31 -73 -41 -69 -43 -279 -161 -295 -166 -10 -3 -35 4
-57 16 -21 12 -58 33 -83 47 -49 27 -104 60 -135 79 -11 7 -48 30 -83 50 -88
53 -88 53 -172 108 -104 69 -101 67 -154 100 -27 17 -53 35 -60 40 -6 6 -33
26 -61 45 -84 58 -249 182 -261 196 -6 8 -14 14 -18 14 -4 0 -13 6 -20 13 -7
6 -28 23 -46 37 -31 24 -66 53 -120 100 -25 21 -25 21 -3 17 13 -3 25 -1 28 4
3 4 16 4 29 -1 12 -4 29 -5 36 0z m-851 -4144 c60 1 114 5 120 9 6 3 11 3 11
-2 0 -9 214 -8 229 2 6 3 11 3 11 -2 0 -9 214 -8 229 2 6 3 11 3 11 -2 0 -9
214 -8 229 2 6 3 11 3 11 -2 0 -9 214 -8 229 2 6 3 11 3 11 -2 0 -9 214 -8
229 2 6 3 11 3 11 -2 0 -9 214 -8 229 2 6 3 11 3 11 -2 0 -9 214 -8 229 2 6 3
11 3 11 -2 0 -4 538 -8 1196 -7 1185 1 1196 1 1215 -19 10 -11 31 -39 46 -61
15 -23 31 -43 34 -46 3 -3 20 -27 39 -55 19 -27 36 -52 40 -55 11 -9 148 -225
199 -313 47 -82 49 -87 28 -88 -95 -3 -5198 -1 -5202 2 -2 3 14 33 35 67 22
35 40 67 40 72 0 6 4 10 9 10 5 0 12 11 15 25 4 14 11 25 16 25 6 0 10 5 10
10 0 6 27 51 60 101 33 50 60 94 60 99 0 5 4 10 8 12 4 2 29 33 55 71 26 37
51 73 57 80 6 6 20 25 31 40 12 16 26 26 33 24 6 -2 20 -1 31 3 11 4 21 5 22
1 2 -3 52 -5 112 -5z"/>
</g>
</svg>
